<svg width="24" height="24" viewBox="0 0 24 24" fill="none" xmlns="http://www.w3.org/2000/svg">
<path fill-rule="evenodd" clip-rule="evenodd" d="M20.3646 2.00879C21.2374 1.914 21.9994 2.59773 21.9994 3.4757V16.0185C21.9994 16.039 21.9994 16.0592 21.9994 16.0791C21.9996 16.4085 21.9997 16.6636 21.9605 16.8944C21.7823 17.9446 21.016 18.7987 19.9911 19.0892C19.7659 19.1531 19.5123 19.1805 19.1848 19.2159C19.165 19.2181 19.1449 19.2203 19.1245 19.2225C18.6679 19.2721 18.462 19.2946 18.2605 19.3256C17.3413 19.4673 16.4487 19.7462 15.6124 20.153C15.429 20.2421 15.2469 20.3409 14.8432 20.56L12.3593 21.9087C12.1352 22.0304 11.8647 22.0304 11.6406 21.9087L9.1567 20.56C8.75308 20.3409 8.57092 20.2421 8.38758 20.153C7.55127 19.7462 6.65861 19.4673 5.73946 19.3256C5.53794 19.2946 5.33208 19.2721 4.87541 19.2225C4.85502 19.2203 4.83492 19.2181 4.81509 19.2159C4.48762 19.1805 4.23406 19.1531 4.00878 19.0892C2.98394 18.7987 2.21759 17.9446 2.03942 16.8944C2.00026 16.6636 2.00036 16.4085 2.0005 16.0791C2.00051 16.0592 2.00052 16.039 2.00052 16.0185V3.4757C2.00052 2.59773 2.76252 1.914 3.63536 2.00879C6.25701 2.2935 8.79786 3.0873 11.1153 4.34565L11.8945 4.76874C11.9306 4.78833 11.9658 4.80917 12 4.83118C12.0342 4.80917 12.0693 4.78833 12.1054 4.76874L12.8846 4.34565C15.2021 3.0873 17.7429 2.2935 20.3646 2.00879ZM11.2469 6.21184C11.2469 6.162 11.2196 6.11616 11.1758 6.09238L10.3966 5.6693C8.26144 4.50993 5.92143 3.77658 3.50671 3.5099V16.0185C3.50671 16.437 3.50935 16.5538 3.52439 16.6425C3.60538 17.1199 3.95372 17.5081 4.41956 17.6401C4.5061 17.6647 4.62191 17.6799 5.03802 17.7251L5.05813 17.7273C5.48942 17.7741 5.73013 17.8002 5.96886 17.837C7.03706 18.0016 8.07447 18.3257 9.0464 18.7985C9.26345 18.9041 9.47619 19.0196 9.85687 19.2263L11.2469 19.981V6.21184ZM12.753 19.981V6.21184C12.753 6.16205 12.7803 6.11619 12.8241 6.09238L13.6033 5.6693C15.7385 4.50993 18.0785 3.77658 20.4932 3.5099V16.0185C20.4932 16.437 20.4906 16.5538 20.4755 16.6425C20.3945 17.1199 20.0462 17.5081 19.5804 17.6401C19.4938 17.6647 19.378 17.6799 18.9619 17.7251L18.9418 17.7273C18.5105 17.7741 18.2698 17.8002 18.0311 17.837C16.9629 18.0016 15.9255 18.3257 14.9535 18.7985C14.7365 18.9041 14.5237 19.0196 14.143 19.2263L12.753 19.981ZM4.65616 8.47567C4.65616 8.05974 4.99333 7.72257 5.40925 7.72257H8.50531C8.92123 7.72257 9.2584 8.05974 9.2584 8.47567C9.2584 8.89159 8.92123 9.22876 8.50531 9.22876H5.40925C4.99333 9.22876 4.65616 8.89159 4.65616 8.47567ZM4.65616 11.4427C4.65616 11.0268 4.99333 10.6896 5.40925 10.6896H7.47329C7.88921 10.6896 8.22639 11.0268 8.22639 11.4427C8.22639 11.8586 7.88921 12.1958 7.47329 12.1958H5.40925C4.99333 12.1958 4.65616 11.8586 4.65616 11.4427Z" fill="black"/>
</svg>
